<svg xmlns="http://www.w3.org/2000/svg" viewBox="0 0 342.38 216.77" xmlns:v="https://vecta.io/nano"><path d="M297.7 196.34c-17.87 1.91-37.29-8.16-57.87-27.23l24.85-24.51c21.79 49.02 54.81 7.49 66.04 10.55 14.27 11.29-2.72 38.47-33.02 41.19zM40 172.14v21.71c0 2.77 1.13 5.48 3.3 7.2 8.3 6.57 26.66 2.41 26.66-13.22L40 172.14z" fill="#c47589"/><path d="M40 187.45v-38.04l42.13 21.19c-9.11 10.3-14.05 27.38-15.32 26.81-7.16-6.33-15.76-9.36-26.81-9.96z" fill="#834b5a"/><path d="M91.25 197.49c-1.42 2.32-1.44 4.67-.69 7.05.67 2.12 1.78 3.23 2.74 3.97 4.28 3.32 18.5 4.96 27.48.07 1.19-.65 2.03-1.87 1.98-3.23-.03-.89-.31-1.82-.77-2.78-7.43-10.82-17.55-11.62-29.26-6.5-.53.23-1.04.69-1.49 1.42z" fill="#c47589"/><path d="M107.7 191.36c-20.96.19-19.18 6.08-17.36 12.39 11.89-4.12 22.71-1.99 32.26 2.76 3.88-8.97.37-13.74-14.89-15.15z" fill="#834b5a"/><path d="M197.96 203.74h0c-2.06-2.01-1.93-7.55.21-9.27 7.57-6.1 15.14-7.94 22.71-5.53 2.09.67 3.63 4.02 3.63 7.97h0c0 1.34-.39 2.59-1.04 3.19-6.52 6.06-14.79 7.85-25.52 3.63z" fill="#c47589"/><path d="M211.91 178.64c-18.95 15.12-17.31 19.94-14.81 24.34 6.74-3.88 15.58-5.64 27.23-4.6 1.6-7.13-1.38-13.83-12.43-19.74zm56.52-26.04c-7.68 14.25-6.62 26.62.85 37.62-7.18-2.94-13.95-7.66-20.43-13.62l-21.45-44.43 41.02 20.43z" fill="#834b5a"/><path d="M43.91 19.15C13.9 79.08 4.24 114.27 8.17 130.98c23.2 82.11 114.12 74.14 207.61 64.1 8.55-.92 16.68-4.24 23.38-9.63 79.91-64.41 47.21-176.83-46.17-160.6-5.11.89-10.06 2.64-14.56 5.22-17.3 9.87-33.49 13.08-45.15-10.91-6.34-14.55-13.58-19.63-20.15-2.22-.81 2.16-1.72 4.28-2.88 6.28-8.61 14.92-21.79 16.25-43.75-8.61-1.48-1.68-2.78-3.5-4.02-5.36C55.75-.91 49.56 7.04 43.9 19.16z" fill="#c47589"/><g fill="#31243c"><path d="M51.57 61.87c-7.51-1.93-13.99-.05-19.4 5.79v-2.89c5.54-5.84 12.22-6.53 19.4-4.94v2.04zm0 8.51v2.38c-4.32 5.47-12.3 8.3-21.11 10.55v-2.72c7.39-1.34 14.47-4.51 21.11-10.21zm83.41-17.36v1.7c10.46-5.24 20.53-6.7 29.96-1.7v-3.06c-9.67-3.71-19.68-2.41-29.96 3.06zm0 8.85v1.87c10.42 2.68 20.51 4.32 29.96 3.91l1.36-2.89c-10.86.5-21.39.4-31.32-2.89zm-44.94-2.04h4.09c-.43 11.22 6.95 13.24 14.3 7.83v2.72c-6.51 4.34-11.9 3.7-16-2.72-2.87 6.81-8.75 7.66-16 5.79v-3.06c8.4 1.72 14.79-.43 13.62-10.55z"/><circle cx="68.43" cy="61.16" r="4.94"/><circle cx="115.74" cy="56.22" r="4.94"/></g></svg>