<svg xmlns="http://www.w3.org/2000/svg" viewBox="0 0 339.57 486.2" xmlns:v="https://vecta.io/nano"><path d="M193.45 312.53c29.94-1.36 57.64-5.3 78.4-17.28 1.31-.29 2.43-1.1 3.14-2.24 6.75-10.9 8.3-33.9-36.5-54.85 180.61-32.49 72.48 299.55-48 81.98-1.69-3.06-.46-6.85 2.96-7.61zm-80.92 31.98c-.62 33.47 5.28 76.63-3.65 100.74-.83 2.25-1.4 4.58-1.94 6.91-8.35 36.38-86.31 28.9-85.42-9.66-5.21-9.36 7.84-30.62 18.62-54.89.06-5.6 6.19-98.3 31.39-102.11 12.46-1.89 34.28-1.07 41 59z" fill="#ded8dd"/><path d="M241.33 307.33c20.79 57.34 21.78 80.7 43.26 84.34 0 0-19.22 18.23-88.58-18.83s45.33-65.51 45.33-65.51z" fill="#b9acb7"/><g fill="#ded8dd"><path d="M193.21,446.96c8.57,17.06,22.35,25.47,42.37,23.56,7.47-.71,16.64-3.19,21.96-10.01,5.82-7.46,6.41-21.49,5.32-30.89-3.88-33.48-15.51-120.72-32.32-130.11l-31.7,55.16c-12.4,29.81-17.66,60.27-5.62,92.28Z"/><path d="M152.27,162.51c-77.74,0-90.72,129.98-90.72,129.98,17.22,71.66,143.98,158.48,181.67,39.94-9.26-94.59-34.71-169.61-90.95-169.91Z"/></g><g fill="#b9acb7"><path d="M189.74,341.15c8.94,27.02,31.54,16.48,49.38-.56-22.12,43.75-33.03,46.03-52.71,51.08l3.33-50.52Z"/><path d="M186.41 309.54c-11.19 44.12-6.25 91.98 9.59 142.38-4.19-.07 15.94 17.8 13.1 13.34-6.89-10.79-24.56-59.6.28-87.9-21.47-17.11-19.59-36.82-22.97-67.82zm-116.25 5.68c42.44 51.68 48.76 86.69 38.72 130.04 25.21-85.21 43.78-143.21 49.79-149.8-47.03 64.67-44.16 75.78-88.52 19.76z"/></g><path d="M195.53 461.51c-9.12 27.35-81.66 28.01-87-4 1.78-18.94 3.61-37.8 7.95-53.17 4.08-14.46 7.58-29.11 9.47-44.01 2.57-20.23 16.44-43.64 28.21-60.4 8.43-12 27.08-8.92 31.11 5.18 3.9 13.65 4.6 28.12 3.96 42.94-.96 22.08.03 44.2 3.3 66.06 2.46 16.4 4.41 35.16 3 47.4z" fill="#ded8dd"/><path d="M95.23,194.81l44.43-26.55,40.6,15.83c-33.62,21.26-64.32,31.52-85.02,10.72Z" fill="#b9acb7"/><path d="M72.53,172.51c-49.73,9.73-87.15,7.75-48-67C46.6,66.76,62.31,37.02,90.73,21.77c52.78-28.33,76.82-19.72,116.81,10.79,18.36,14.01,36.25,41.15,54.29,73.74,6.38,11.52,10.26,24.29,11.09,37.43,3.12,49.3-27.54,60.17-76.91,49.77l-123.47-21Z" fill="#ded8dd"/><path d="M57.45 138.64c-2.35 18.56-17.38 28.91-37.11 35.08 9.53 3.3 21.02 10.28 66.21-6.74l-29.11-28.34zm132.29-6.27c6.46 15.47 15.85 72.62 72.37 52.46-13.19 17.84-49.66 18.28-109.43 1.31l37.06-53.78z" fill="#b9acb7"/><path d="M156.16 92.67c12.94 2.89 17.99 9.06 17.14 17.7-.09.97-.97 1.71-2.02 1.71h-4.87c-8.92 0-15.46-7.75-13.32-15.77l.61-2.29c.27-1 1.37-1.61 2.45-1.37z" fill="#3f3036"/><path d="M84.99 97.2c1.17-5.51 5.21-8.87 12.13-10.07 1.24-.22 2.35.83 2.24 2.09l-.34 3.95a7.36 7.36 0 0 1-8.93 6.55l-4.06-.9a1.37 1.37 0 0 1-1.04-1.63z" fill="#271a1d"/><path d="M61.2 130.2c-9.24 13.02-5.5 31.43 3.53 44.6 6.89 10.06 16.89 22.05 29.93 20.76 11.58-1.15 19.86-8.98 48.87 1.95 14.31 5.39 34.46-10.97 45.41-37.3 5.82-13.99 1.66-29.96-9.78-39.9-17.34-15.07-41.05-27.69-65.29-27.8-21.58.11-38.12 17.19-52.67 37.69z" fill="#ded8dd"/><g fill="#3f3136"><path d="M101.22 143.73l-9.33-9.14c-1.4-1.37-.78-3.25-.67-5.21.95-17.3 30.49-19.96 32.56.85.13 1.33-.29 2.66-1.15 3.69l-7.56 9.11c-3.52 4.24-9.91 4.57-13.85.71z"/><path d="M92.94 154.33c4.21 2.36 8.52 4.61 13.79 5.63v-16.99l2.94-.37v17.36c4.78-.48 9.21-2.32 13.4-5.1v2.68c-7.27 5.77-15.77 8.98-30.13-.13v-3.08z"/></g></svg>