<?xml version="1.0" encoding="UTF-8"?>
<svg id="_Слой_2" data-name="Слой 2" xmlns="http://www.w3.org/2000/svg" viewBox="0 0 388.34 382.21">
  <defs>
    <style>
      .cls-1 {
        fill: #a07d39;
      }

      .cls-2 {
        fill: #725723;
      }

      .cls-3 {
        fill: #e4ce52;
      }
    </style>
  </defs>
  <path class="cls-2" d="M249.45,174.89c52.46,34.25,65.74,65.29,75.06,96l-20.43,36.26-45.96-30.13-24.51-96.51,15.83-5.62Z"/>
  <path class="cls-2" d="M137.11,175.91c-48.7,35.24-70.11,70.29-68.94,105.19l22.98,20.94,39.83-23.49,29.11-98.04-22.98-4.6Z"/>
  <ellipse class="cls-2" cx="106.98" cy="51.83" rx="43.4" ry="42.89"/>
  <ellipse class="cls-2" cx="280.09" cy="50.81" rx="45.45" ry="40.85"/>
  <path class="cls-3" d="M119.74,281.62c-16.96,10.25-32.02,15.11-45.45,15.32-8.28,26.49-6.16,48.82,9.19,65.87,29.09-3,56.01-18.44,81.7-40.85l-45.45-40.34Z"/>
  <path class="cls-3" d="M232.6,328.6c18.96,17.3,45.82,29.16,78.13,37.28,14.11-25.92,18.7-51.2-5.11-74.55-15.99,2.88-30.82-5.27-45.45-15.32l-27.57,52.6Z"/>
  <path class="cls-1" d="M115.66,245.87c-13.04,63.56,21.08,87.88,76.09,91.91,57.71,4.24,104.29-35.28,83.74-94.47-16.35-47.1-47.57-85.78-83.74-80.17-45.63,7.08-68.95,47.94-76.09,82.72Z"/>
  <path class="cls-3" d="M105.96,105.96c-8.49,55.01,35.28,84.17,90.61,88.85,52.25,4.42,93.94-28.59,90.61-88.85-2.7-49-40.57-88.85-90.61-88.85S113.44,57.46,105.96,105.96Z"/>
  <ellipse class="cls-2" cx="231.57" cy="98.3" rx="11.74" ry="16.34"/>
  <ellipse class="cls-2" cx="158.04" cy="97.28" rx="11.23" ry="16.34"/>
  <path class="cls-3" d="M52.85,369.96c17.58-1.01,30.55-4.05,38.81-9.19,9.03-26.4,10.9-49.54-6.64-63.83-42.38-120-118.47,61.79-32.17,73.02Z"/>
  <path class="cls-3" d="M341.36,369.45c-7.98,.55-17.04,.26-30.64-3.57-11.69-25.51-15.83-50.52-5.11-74.55,34.21-93.96,116.43,31.15,35.74,78.13Z"/>
  <path class="cls-2" d="M156.51,166.21c30.32,15.4,55.04,15.12,76.09-1.53l-5.11-9.19c-9.99,4.45-20.1,9.86-26.04,8.17l-.51-15.83-11.23-.51-.51,15.32c-2.46,3.84-14.19-.59-26.55-7.15l-6.13,10.72Z"/>
  <ellipse class="cls-2" cx="195.32" cy="137.62" rx="24.51" ry="12.26"/>
  <ellipse class="cls-3" cx="193.28" cy="286.21" rx="47.49" ry="29.11"/>
  <path class="cls-2" d="M17.62,292.34c-21.5,51.54,8.51,81.18,38.3,76.6v-11.74c1.26-46.72-9.78-63.58-38.3-64.85h0Z"/>
  <path class="cls-2" d="M333.7,368.94c33.6,8.42,55.75-42.71,38.81-77.11h0c-27.92,5.7-46.3,32.48-41.58,60.58l2.78,16.52Z"/>
</svg>