<?xml version="1.0" encoding="UTF-8"?>
<svg id="_Слой_2" data-name="Слой 2" xmlns="http://www.w3.org/2000/svg" viewBox="0 0 414.64 311.49">
  <defs>
    <style>
      .cls-1 {
        fill: #556125;
      }

      .cls-2 {
        fill: #f1e1a5;
      }

      .cls-3 {
        fill: #93a568;
      }
    </style>
  </defs>
  <path class="cls-3" d="M396.26,10.72c1.78-2.69,4.16-2.58,6.89-.77,11.46,31.62-8.68,68.68-31.15,74.3l-45.45-45.19c25.79,6.38,63.94,19.29,69.7-28.34Z"/>
  <path class="cls-1" d="M346.21,44.43c19.4,18.13,38.61,27.35,53.11,15.32-3.43,9.45-9.18,16.76-18.89,20.43l-33.19-1.02-1.02-34.72Z"/>
  <path class="cls-3" d="M196.34,77.36c152.61-94.22,216.48,5.74,171.99,47.77-20.47,19.34-45.7,32.5-70.11,39.54l-101.87-18.38V77.36Z"/>
  <path class="cls-1" d="M221.62,117.96l47.23,39.57c13.37-49.57-8.93-80.64-72.51-80.17l25.28,40.6Z"/>
  <path class="cls-3" d="M119.74,114.13c2.56-38.76,22.7-55.58,72-36,48.68-2.5,79.98,16.02,75.83,77.36L119.74,114.13Z"/>
  <path class="cls-3" d="M380.94,94.98c.63,35.39-.33,62.34-5.62,66.38-12.92,.73-25.22-1.8-36.77-8.17-1.67-7.85-1.16-16.89,.51-26.55l41.87-31.66Z"/>
  <path class="cls-2" d="M360,124.09l-64.34,25.53-10.21,15.32c36.43-1.36,61.28-14.98,74.55-40.85Z"/>
  <path class="cls-2" d="M22.98,247.66h0s133.79,50.04,133.79,50.04l-30.33,2.67c-41.73,3.68-81.9-16.79-103.45-52.71Z"/>
  <path class="cls-3" d="M291.57,156.26c18.49,9.85,28.5,22.91,29.62,39.32,1.19,10.56-5.38,17.23-11.74,24-3.65,2.59-7.57,3.4-11.74,2.55-17.87-2.13-27.37-21.08-29.11-55.66l9.7-24,13.28,13.79Z"/>
  <path class="cls-3" d="M206.3,92.68l57.45,34.47,11.49,36c3.06,36.77-68.63,143.39-119.49,138.64-68.4-11.06-117.22-30.17-142.47-58.98C-12.98,183.32,91.66,92.22,206.3,92.68Z"/>
  <path class="cls-2" d="M131.41,90.23c-5.16,11.84,7.11,20.09,21.83,18.28,10.61-1.31,19.35-7.72,19.35-17.24s-8.66-17.24-19.35-17.24-18.06,7.54-21.83,16.19Z"/>
  <path class="cls-2" d="M174.64,103.66c-4.2,16.36,9.97,24.04,22.98,21.96,11.14-1.79,20.43-9.14,20.43-20.43s-9.14-20.43-20.43-20.43-20.18,7.97-22.98,18.89Z"/>
  <ellipse class="cls-1" cx="151.74" cy="84.34" rx="7.06" ry="7.23"/>
  <path class="cls-1" d="M200.17,95.91c0,4-3.16,7.23-7.06,7.23s-7.91-3.33-7.06-7.23c.83-3.84,4.01-7.07,7.06-7.23,3.9-.21,7.06,3.24,7.06,7.23Z"/>
  <path class="cls-1" d="M243.57,39.83c-4.4,3.92-6.41,11.14-7.66,19.4l18.89-6.13c-3.73-4.9-7.46-9.98-11.23-13.28Z"/>
  <path class="cls-1" d="M262.47,34.21c-3.59,4.23-4.94,9.7-5.11,15.83l16.34-4.6c-3.38-5.79-6.81-11.26-11.23-11.23Z"/>
  <path class="cls-1" d="M288.51,29.62c-3.77,3.18-4.58,8.87-5.11,14.81l18.89-2.55c-3.62-5.06-8.05-9.32-13.79-12.26Z"/>
  <path class="cls-1" d="M328.85,30.64c-4.15,2.78-6.6,6.41-7.66,10.72l11.74,2.04c.08-4.63-1.05-8.94-4.09-12.77Z"/>
  <path class="cls-1" d="M344.17,34.72c-3.67,3.83-6.09,7.08-7.15,9.7l10.21,2.04c.4-4.41-.15-8.49-3.06-11.74Z"/>
  <path class="cls-1" d="M357.45,37.28c-4.36,2.06-6.1,5.76-6.64,10.21h11.74c-1-4.19-2.13-8.24-5.11-10.21Z"/>
  <path class="cls-1" d="M297.7,75.06c2.85-5.75,6.15-10.76,12.26-11.23,2.06-.28,3.6,.18,3.06,3.57l-15.32,7.66Z"/>
  <path class="cls-1" d="M321.7,55.15c-4.7,2.12-5.48,5.83-4.6,10.21h13.79c-3.68-5.94-6.98-10.3-9.19-10.21Z"/>
  <path class="cls-1" d="M332.43,45.96c-3.97,3.09-5.8,6.01-4.09,8.68l11.23-2.55c-1.01-2.62-2.56-5.02-7.15-6.13Z"/>
  <path class="cls-1" d="M381.45,101.62c-3.93,47.72-20.91,57-42.89,51.57,11.07,7.27,23.27,10.2,36.77,8.17,5.39-9.5,7.18-30.2,6.13-59.74Z"/>
  <path class="cls-1" d="M13.28,201.19c40.85,46.47,116.73,60.21,139.4,66.38,40.85,2.55,95.45-60.51,115.91-127.66,24,66.64-58.35,154.15-104.68,161.36-38.81,2.81-131.74-28.85-150.64-58.47-5.88-13.31-8.43-26.94,0-41.62Z"/>
  <path class="cls-1" d="M272.17,169.02c-5.67,14.01,1.35,34.22,7.91,42.13,7,11.38,17.14,13.12,29.36,8.43-15.66-8.69-27.41-27.25-37.28-50.55Z"/>
</svg>