<?xml version="1.0" encoding="UTF-8"?>
<svg id="_Слой_2" data-name="Слой 2" xmlns="http://www.w3.org/2000/svg" viewBox="0 0 462.35 368.59">
  <defs>
    <style>
      .cls-1 {
        fill: #606893;
      }

      .cls-2 {
        fill: #333958;
      }

      .cls-3 {
        fill: #b1c1e4;
      }
    </style>
  </defs>
  <path class="cls-1" d="M111.54,154.14l64.09,36.64c-44.09,4.19-82.11,15.82-117.19,31.02l-19.82,14.19c-.39,.28-.93,.04-.98-.43l-.39-3.29-10.31,6.44c-1.08,.67-2.37,.93-3.62,.71l-7.32-1.27c-1.16-.2-1.53-1.68-.6-2.4l13.93-10.88-3.62-2.67-15.9,6.65c-1.19,.5-2.47-.49-2.29-1.77l.62-4.51,17.89-15.32-5-2.7c-.85-.46-.77-1.71,.14-2.06l14.8-5.54c21.77-10.71,47.82-25.87,75.57-42.81Z"/>
  <path class="cls-1" d="M279.73,234.94c-3.13,19.92-1.44,37.4,10.44,47.8,8.62,2.84,14.81,8,15.53,18.17,5.74-5.12,12.41,1.42,19.47,12.79,1.19,14.18-9.21,15.68-20.98,15.66-11.04-.31-21.05-3.02-29.74-8.82-3.26-2.18-5.28-5.76-5.55-9.67-1.72-24.98-9.12-47.19-9.67-64.52l20.5-11.41Z"/>
  <path class="cls-1" d="M228.35,276.69c10.39,18.55,10.85,40.86,12.89,64.6-.27,12.84,15.42,17.44,34.72,20.17,15.77,.5,28.46-1.96,31.91-13.28-2.18-6.68-10.51-10.69-21.96-11.49-.98-8.08-7.87-13.02-16.85-16.85-9.46-18.8-13.71-41.86-13.28-57.7l-27.45,14.55Z"/>
  <path class="cls-3" d="M205.24,167.52c2.81,52.98,39.26,91.62,55.4,89.51h0c10.9,0,21.15-5.23,27.53-14.07l.55-.76c10.77-15.39,15.12-30.67,19.15-45.96-8.81-21.62-30.38-26.33-55.15-26.81-24.55-7.66-40.44-24.99-47.49-1.91Z"/>
  <path class="cls-1" d="M297.27,227.52l21.59-44.87-62.98,42.48c14.17-4.11,27.99-3.59,41.38,2.38Z"/>
  <path class="cls-3" d="M175.63,190.78c2.81,52.98,39.26,91.62,55.4,89.51h0c10.9,0,21.15-5.23,27.53-14.07l.55-.76c10.77-15.39,15.12-30.67,19.15-45.96-8.81-21.62-30.38-26.33-55.15-26.81-24.55-7.66-40.44-24.99-47.49-1.91Z"/>
  <path class="cls-1" d="M272.9,209.88l-4.79,33.05c2.28-15.01,11.1-6.16,29.15-15.42l-24.36-17.63Z"/>
  <path class="cls-1" d="M247.63,74.73c-2.41,.28-4.8,.57-7.17,.87-31.69,4.1-59.33,11.07-80.15,22.87-12.36,3.13-30.36-.23-50.55-6.13l-9.82,.6c-.77,.05-1,1.08-.32,1.44l14.73,7.91-13.82,4.61c-.76,.25-.79,1.33-.04,1.62l11.57,4.5-.76,.65c-3.03,2.59-6.61,4.45-10.48,5.41l-8.69,2.17c-1.17,.29-1.6,1.74-.78,2.62l7.94,8.54-6.88,15.76c-.4,.92,.47,1.88,1.42,1.56l95.58-31.36,58.21-43.66Z"/>
  <path class="cls-3" d="M340.99,163.24c12.47-35.96,40.51-74.99,48.8-82.52,11.13-17.81,12.91-33.58,3.28-50.59-52.65-46.92-72.86-24.88-100.77,7.49-20.89,20.62-51.11,41.85-85.11,63.32,.18,49.67,62.28,59.05,133.79,62.3Z"/>
  <path class="cls-1" d="M177.95,205.74c1.08,9.73,3.84,19.47,8.3,29.2,12.83-14.32,46.78-16.39,91.19-12.37l-99.5-16.83Z"/>
  <path class="cls-1" d="M303.27,104.86c21.04,14.43,44.49,21.9,86.52-24.13-17.84,28.22-33.67,53.73-45.51,73.83l-41.01-49.7Z"/>
  <path class="cls-2" d="M452.99,55.33c10.73,9.16,4.97,13.61-4.43,17.02h-7.83c-13.7-.27-27.65,3.37-50.94,8.38-16.58-16.41-18.84-35.61,3.33-46.99,20.87,3.08,34.55,5.73,59.87,21.59Z"/>
  <path class="cls-3" d="M285.67,90.56c55.17,20.76,65.22,54.96,55.15,95.17-27.51,62.56-151.25,39.17-255.32-23.17,6.66-9.82,17.57-17.62,30.64-24.41,63.19-32.56,123.46-57.83,169.53-47.59Z"/>
  <path class="cls-2" d="M338.33,56.63c0,4.07,5.13,7.38,11.46,7.38s11.46-3.3,11.46-7.38-5.13-11.35-11.46-11.35-11.46,7.27-11.46,11.35Z"/>
</svg>